<?xml version="1.0" standalone="no"?>
<!DOCTYPE svg PUBLIC "-//W3C//DTD SVG 20010904//EN"
 "http://www.w3.org/TR/2001/REC-SVG-20010904/DTD/svg10.dtd">
<svg version="1.0" xmlns="http://www.w3.org/2000/svg"
 width="10pt" height="12pt" viewBox="0 0 20 24" preserveAspectRatio="xMidYMid meet">

  <defs>
    <!-- Dégradé rouge en haut, bleu en bas -->
    <linearGradient id="redToBlue" x1="0" y1="0" x2="0" y2="1">
      <stop offset="0%" stop-color="#ff0000" />   <!-- rouge vif -->
      <stop offset="100%" stop-color="#0000ff" /> <!-- bleu vif -->
    </linearGradient>
  </defs>

  <!-- Scale réduite de 0.1 à 0.05 -->
  <g transform="translate(0,24) scale(0.05,-0.05)" fill="url(#redToBlue)" stroke="none" class="wave">
    <path d="M42 88 c2 -35 8 -63 13 -63 6 0 11 28 13 63 2 51 0 62 -13 62 -13 0 -15 -11 -13 -62z"/>
    <path d="M160 105 c0 -33 4 -45 15 -45 11 0 15 12 15 45 0 33 -4 45 -15 45 -11 0 -15 -12 -15 -45z"/>
    <path d="M80 105 c0 -24 5 -35 15 -35 10 0 15 11 15 35 0 24 -5 35 -15 35 -10 0 -15 -11 -15 -35z"/>
    <path d="M2 88 c4 -59 28 -63 28 -4 0 35 -4 46 -16 46 -12 0 -14 -9 -12 -42z"/>
    <path d="M122 83 c4 -66 28 -70 28 -4 0 39 -4 51 -16 51 -12 0 -14 -10 -12 -47z"/>
  </g>
</svg>
